<svg xmlns="http://www.w3.org/2000/svg" viewBox="0 0 254.6 31.47"><defs><style>.cls-1{fill:#00ebb9;}.cls-2{fill:#fff;}</style></defs><title>PL isologo encabezado</title><g id="Capa_2" data-name="Capa 2"><g id="INICIO"><polygon class="cls-1" points="7.87 15.73 7.87 7.87 7.87 7.87 0 7.87 0 7.87 0 15.73 0 23.6 0 31.47 0 31.47 7.87 31.47 15.73 31.47 15.73 31.47 15.73 23.6 15.73 23.6 7.87 23.6 7.87 23.6 7.87 15.73"/><path class="cls-1" d="M7.87,0h0V7.87h11.8A3.93,3.93,0,0,1,23.6,11.8h0a3.93,3.93,0,0,1-3.93,3.93H15.73V23.6h3.93a11.8,11.8,0,0,0,11.8-11.8h0A11.8,11.8,0,0,0,19.67,0Z"/><g id="LOGO"><path class="cls-2" d="M62.26,17.38a7.46,7.46,0,0,1-7.68,7.82,6.85,6.85,0,0,1-3.57-1v5.51H46V10.06h3.43l.63,1.16a6.78,6.78,0,0,1,4.49-1.64A7.45,7.45,0,0,1,62.26,17.38Zm-5.08,0a3.28,3.28,0,1,0-6.56,0,3.28,3.28,0,1,0,6.56,0Z"/><path class="cls-2" d="M64.16,5.54h5V24.7h-5Z"/><path class="cls-2" d="M91.13,10V24.69h-3.9l-.43-1a6.94,6.94,0,0,1-4.42,1.53,7.47,7.47,0,0,1-7.68-7.82A7.43,7.43,0,0,1,82.38,9.6a7,7,0,0,1,4.47,1.57L87.37,10Zm-4.8,7.33a3.28,3.28,0,1,0-6.56,0,3.28,3.28,0,1,0,6.56,0Z"/><path class="cls-2" d="M94,18.42V10.06h5V18.2c0,1.55.83,2.45,2.18,2.45s2.16-.92,2.16-2.45V10.06h5v8.36c0,4.1-2.88,6.77-7.21,6.77S94,22.51,94,18.42Z"/><path class="cls-2" d="M121.29,20.29V24.7h-3.47c-3.24,0-5.21-2-5.21-5.23V13.94h-2.68V12.76l6.56-7h1v4.28h3.68v3.88h-3.55V18.6a1.55,1.55,0,0,0,1.7,1.68Z"/><path class="cls-2" d="M122.49,17.38c0-4.54,3.44-7.8,8.21-7.8s8.21,3.26,8.21,7.8-3.45,7.8-8.21,7.8S122.49,21.91,122.49,17.38Zm8.21,3.27a3.08,3.08,0,0,0,3.16-3.27,3.16,3.16,0,1,0-6.32,0,3.08,3.08,0,0,0,3.16,3.27Z"/><path class="cls-2" d="M167.44,10v4.62h-2c-1.79,0-2.53.78-2.53,2.65V24.7h-5V10.06h3.38l.79,1.63a4.89,4.89,0,0,1,4-1.69Z"/><path class="cls-2" d="M202.14,5.54V24.7h-3.73l-.48-1.09a6.77,6.77,0,0,1-4.42,1.58,7.47,7.47,0,0,1-7.69-7.82,7.46,7.46,0,0,1,7.69-7.8,6.84,6.84,0,0,1,3.64,1V5.54Zm-4.67,11.84a3.28,3.28,0,1,0-6.56,0,3.28,3.28,0,1,0,6.56,0Z"/><path class="cls-2" d="M205.12,11.6h5V24.7h-5Zm0-6.11h5V9.77h-5Z"/><path class="cls-2" d="M223.31,20.29V24.7h-3.47c-3.24,0-5.21-2-5.21-5.23V13.94h-2.68V12.76l6.56-7h1v4.28h3.68v3.88h-3.55V18.6a1.55,1.55,0,0,0,1.7,1.68Z"/><path class="cls-2" d="M224.41,17.38c0-4.54,3.44-7.8,8.21-7.8s8.21,3.26,8.21,7.8-3.45,7.8-8.21,7.8S224.41,21.91,224.41,17.38Zm8.21,3.27a3.08,3.08,0,0,0,3.16-3.27,3.16,3.16,0,1,0-6.32,0,3.08,3.08,0,0,0,3.16,3.27Z"/><path class="cls-2" d="M151.08,18.81a2.92,2.92,0,0,1-2.75,1.85,3.06,3.06,0,0,1-3-3.29,3,3,0,0,1,3-3.26,3,3,0,0,1,2.65,1.6h5a7.43,7.43,0,0,0-7.67-6.12c-4.73,0-8.1,3.23-8.1,7.76s3.39,7.82,8.09,7.82h0a7.58,7.58,0,0,0,7.76-6.37Z"/><path class="cls-2" d="M176.3,21.13a2.83,2.83,0,0,1-3-2.47,1.69,1.69,0,0,1,0-.22h10.9a9.11,9.11,0,0,0,.09-1.19h0a8,8,0,0,0-15.94.13,8,8,0,0,0,15.45,2.82h-5.19A3.07,3.07,0,0,1,176.3,21.13Zm0-7.59a3,3,0,0,1,3,2.39h-6.05A3,3,0,0,1,176.3,13.53Z"/><polygon class="cls-2" points="179.23 3.53 174.26 5.92 174.26 8.54 179.23 6.46 179.23 3.53"/><path class="cls-2" d="M249.22,15.51c-1.39-.25-2.51-.44-2.51-1.28,0-.68.54-1.08,1.35-1.08a1.39,1.39,0,0,1,1.44.82h4.76c-.33-2.66-2.65-4.4-6.14-4.4-3.75,0-6.25,1.9-6.25,4.83,0,3.55,3,4.24,5.28,4.61,1.41.23,2.52.47,2.52,1.32s-.7,1.13-1.44,1.13a1.54,1.54,0,0,1-1.6-1h-4.9c.31,2.85,2.65,4.73,6.4,4.73h0c3.89,0,6.48-2,6.48-5.06C254.6,16.41,251.53,15.93,249.22,15.51Z"/></g></g></g></svg>